<svg width="15" height="10" viewBox="0 -1 194 124" fill="none" xmlns="http://www.w3.org/2000/svg">
<path d="M172.42 0.189209H62.5627C57.0699 0.189209 51.577 2.24903 48.144 6.36865L6.94749 47.5651C-1.29182 55.8044 -1.29182 68.8498 6.94749 76.4025L48.144 117.599C51.577 121.719 57.0699 123.778 62.5627 123.778H172.42C184.092 123.778 193.018 114.853 193.018 103.18V20.7874C193.018 9.11508 184.092 0.189209 172.42 0.189209ZM136.03 77.7757C138.776 80.5222 138.776 84.6418 136.03 87.3883C134.657 88.7615 133.283 89.4481 131.224 89.4481C129.164 89.4481 127.791 88.7615 126.417 87.3883L110.625 71.5963L94.8334 87.3883C93.4602 88.7615 92.087 89.4481 90.0272 89.4481C87.9674 89.4481 86.5941 88.7615 85.2209 87.3883C82.4745 84.6418 82.4745 80.5222 85.2209 77.7757L101.013 61.9839L85.2209 46.1919C82.4745 43.4455 82.4745 39.3258 85.2209 36.5794C87.9674 33.833 92.087 33.833 94.8334 36.5794L110.625 52.3714L126.417 36.5794C129.164 33.833 133.283 33.833 136.03 36.5794C138.776 39.3258 138.776 43.4455 136.03 46.1919L120.238 61.9839L136.03 77.7757Z" fill="black"/>
</svg>
